<svg width="40" height="39" viewBox="0 0 40 39" fill="none" xmlns="http://www.w3.org/2000/svg">
<path d="M20.1068 37.3058C29.9943 37.3058 38.0097 29.2904 38.0097 19.4029C38.0097 9.51541 29.9943 1.5 20.1068 1.5C10.2193 1.5 2.20386 9.51541 2.20386 19.4029C2.20386 29.2904 10.2193 37.3058 20.1068 37.3058Z" stroke="white" stroke-width="3" stroke-miterlimit="10"/>
<path d="M16.9386 11.0563L27.1782 18.6805C27.3214 18.787 27.4376 18.9255 27.5177 19.0849C27.5978 19.2443 27.6395 19.4203 27.6395 19.5987C27.6395 19.7771 27.5978 19.953 27.5177 20.1125C27.4376 20.2719 27.3214 20.4104 27.1782 20.5169L17.3303 27.7581C17.1633 27.8803 16.9664 27.9549 16.7605 27.974C16.5545 27.9931 16.3472 27.9561 16.1606 27.8668C15.974 27.7776 15.8151 27.6394 15.7007 27.467C15.5864 27.2946 15.5209 27.0944 15.5113 26.8878L15.1327 12.018C15.1258 11.8051 15.1788 11.5946 15.2854 11.4103C15.3921 11.2259 15.5483 11.0752 15.7363 10.9751C15.9243 10.8749 16.1366 10.8295 16.3491 10.8438C16.5616 10.8582 16.7658 10.9318 16.9386 11.0563Z" fill="white"/>
</svg>
