<svg width="21" height="21" viewBox="0 0 21 21" fill="none" xmlns="http://www.w3.org/2000/svg">
<g clip-path="url(#clip0_737:2540)">
<path d="M5.2101 6.30023H1.38631C1.20134 6.30023 1.02396 6.37828 0.893173 6.51721C0.762381 6.65614 0.688904 6.84458 0.688904 7.04106V13.7758C0.688904 13.8731 0.706937 13.9695 0.741986 14.0593C0.777035 14.1492 0.828411 14.2309 0.893173 14.2997C0.957934 14.3685 1.03482 14.423 1.11943 14.4603C1.20405 14.4975 1.29472 14.5167 1.38631 14.5167H5.2101C5.3036 14.5179 5.39591 14.5391 5.48154 14.579C5.56717 14.6189 5.64438 14.6767 5.70857 14.7489L10.737 20.1994C10.8339 20.3046 10.9581 20.3768 11.0938 20.4067C11.2295 20.4366 11.3704 20.4229 11.4987 20.3673C11.6271 20.3118 11.7369 20.2169 11.8142 20.0947C11.8915 19.9726 11.9328 19.8287 11.9329 19.6816V1.14696C11.9333 0.999574 11.8923 0.855415 11.8151 0.732921C11.7379 0.610426 11.6282 0.515164 11.4998 0.459312C11.3714 0.403459 11.2302 0.389555 11.0943 0.419382C10.9584 0.449209 10.834 0.521414 10.737 0.626754L5.70857 6.07728C5.64357 6.14772 5.56602 6.20371 5.48044 6.24199C5.39486 6.28026 5.30295 6.30007 5.2101 6.30023Z" fill="white"/>
<path d="M14.1169 0.502813L13.8327 0.402954V2.66491C13.8322 2.82486 13.8726 2.98195 13.9496 3.11939C14.0266 3.25683 14.1374 3.36945 14.27 3.44521C15.4581 4.11662 16.4519 5.11873 17.1449 6.34417C17.8379 7.56962 18.204 8.97224 18.204 10.4018C18.204 11.8313 17.8379 13.234 17.1449 14.4594C16.4519 15.6849 15.4581 16.687 14.27 17.3584C14.1375 17.4343 14.0269 17.547 13.9499 17.6844C13.8729 17.8218 13.8324 17.9788 13.8327 18.1387V20.403C15.8001 19.7289 17.5193 18.4172 18.7489 16.6519C19.9784 14.8867 20.6564 12.7567 20.6878 10.5611C20.7192 8.36545 20.1022 6.21456 18.9237 4.41052C17.7451 2.60648 16.0642 1.23992 14.1169 0.502813Z" fill="white"/>
<path d="M16.2616 10.403C16.2586 9.49482 16.0529 8.60038 15.6615 7.79301C15.27 6.98564 14.704 6.28833 14.0098 5.75828C13.9928 5.74619 13.9732 5.73916 13.9528 5.73793C13.9324 5.7367 13.9121 5.74132 13.894 5.75129C13.8759 5.76127 13.8607 5.77623 13.8499 5.79462C13.8391 5.81302 13.8332 5.83415 13.8327 5.85582V14.971C13.8328 14.9929 13.8384 15.0143 13.849 15.033C13.8597 15.0517 13.8749 15.067 13.8931 15.0773C13.9112 15.0876 13.9317 15.0924 13.9523 15.0912C13.9728 15.0901 13.9927 15.0831 14.0098 15.0709C14.7089 14.5405 15.2783 13.84 15.6701 13.0278C16.0619 12.2156 16.2647 11.3155 16.2616 10.403Z" fill="white"/>
</g>
<defs>
<clipPath id="clip0_737:2540">
<rect width="20" height="20" fill="white" transform="translate(0.688843 0.402954)"/>
</clipPath>
</defs>
</svg>
