<svg width="338" height="135" viewBox="0 0 338 135" fill="none" xmlns="http://www.w3.org/2000/svg">
<g clip-path="url(#clip0_741:3662)">
<path d="M12.3501 96.8399V102.55C12.3504 102.948 12.5087 103.329 12.7901 103.61C13.0711 103.891 13.4524 104.05 13.8501 104.05C14.2478 104.05 14.6291 103.891 14.9101 103.61C15.1915 103.329 15.3497 102.948 15.3501 102.55V96.8399C15.3497 96.4422 15.1915 96.061 14.9101 95.7799C14.7723 95.6388 14.6073 95.527 14.4251 95.4514C14.2429 95.3758 14.0473 95.3379 13.8501 95.3399C13.6529 95.3379 13.4572 95.3758 13.275 95.4514C13.0928 95.527 12.9279 95.6388 12.7901 95.7799C12.5087 96.061 12.3504 96.4422 12.3501 96.8399Z" fill="white"/>
<path d="M19.71 97.79V101.57C19.7103 101.968 19.8686 102.349 20.15 102.63C20.431 102.911 20.8123 103.07 21.21 103.07C21.6077 103.07 21.9889 102.911 22.27 102.63C22.5513 102.349 22.7096 101.968 22.71 101.57V97.76C22.7074 97.3628 22.5495 96.9823 22.27 96.7C21.9889 96.4186 21.6077 96.2604 21.21 96.26C20.8123 96.2604 20.431 96.4186 20.15 96.7C19.8704 96.9823 19.7125 97.3628 19.71 97.76V97.79Z" fill="white"/>
<path d="M27.0701 98.74V100.64C27.0721 101.04 27.2299 101.424 27.5101 101.71C27.7929 101.989 28.173 102.146 28.5701 102.15C28.9704 102.148 29.3542 101.99 29.6401 101.71C29.9202 101.424 30.0781 101.04 30.0801 100.64V98.74C30.0776 98.3427 29.9196 97.9623 29.6401 97.68C29.3542 97.3998 28.9704 97.242 28.5701 97.24C28.173 97.2436 27.7929 97.4013 27.5101 97.68C27.2305 97.9623 27.0726 98.3427 27.0701 98.74V98.74Z" fill="white"/>
<path d="M35.9299 97.24C35.5327 97.2425 35.1522 97.4004 34.8699 97.68C34.5904 97.9623 34.4324 98.3427 34.4299 98.74V100.64C34.432 101.04 34.5898 101.424 34.8699 101.71C35.1522 101.99 35.5327 102.147 35.9299 102.15C36.3302 102.148 36.714 101.99 36.9999 101.71C37.28 101.424 37.4379 101.04 37.4399 100.64V98.74C37.4374 98.3427 37.2794 97.9623 36.9999 97.68C36.714 97.3998 36.3302 97.242 35.9299 97.24V97.24Z" fill="white"/>
<path d="M43.28 110.87C43.6777 110.87 44.059 110.711 44.34 110.43C44.6202 110.144 44.778 109.76 44.78 109.36V90.0701C44.7775 89.6728 44.6196 89.2923 44.34 89.0101C44.059 88.7287 43.6777 88.5704 43.28 88.5701C42.8823 88.5704 42.5011 88.7287 42.22 89.0101C41.9405 89.2923 41.7825 89.6728 41.78 90.0701V109.43C41.7938 109.807 41.9512 110.165 42.22 110.43C42.5023 110.71 42.8828 110.868 43.28 110.87V110.87Z" fill="white"/>
<path d="M50.6599 117.36C51.0576 117.36 51.4389 117.202 51.7199 116.92C52.0013 116.639 52.1596 116.258 52.1599 115.86V83.5401C52.1596 83.1424 52.0013 82.7612 51.7199 82.4801C51.5821 82.339 51.4172 82.2272 51.235 82.1516C51.0528 82.076 50.8572 82.0381 50.6599 82.0401C50.4627 82.0381 50.267 82.076 50.0848 82.1516C49.9027 82.2272 49.7377 82.339 49.5999 82.4801C49.3185 82.7612 49.1603 83.1424 49.1599 83.5401V115.87C49.1603 116.268 49.3185 116.649 49.5999 116.93C49.7396 117.068 49.9051 117.177 50.087 117.251C50.2689 117.325 50.4636 117.362 50.6599 117.36V117.36Z" fill="white"/>
<path d="M58.02 115.3C58.4177 115.3 58.799 115.141 59.08 114.86C59.3614 114.579 59.5197 114.198 59.52 113.8V85.5899C59.5197 85.1922 59.3614 84.811 59.08 84.5299C58.9422 84.3888 58.7773 84.277 58.5951 84.2014C58.4129 84.1258 58.2173 84.0879 58.02 84.0899C57.8228 84.0879 57.6272 84.1258 57.445 84.2014C57.2628 84.277 57.0978 84.3888 56.96 84.5299C56.6786 84.811 56.5204 85.1922 56.52 85.5899V113.8C56.5204 114.198 56.6786 114.579 56.96 114.86C57.2411 115.141 57.6223 115.3 58.02 115.3V115.3Z" fill="white"/>
<path d="M65.46 105.95C65.8577 105.95 66.2389 105.791 66.52 105.51C66.8013 105.229 66.9596 104.848 66.96 104.45V94.96C66.9596 94.5624 66.8013 94.1811 66.52 93.9C66.3822 93.7589 66.2172 93.6471 66.035 93.5715C65.8529 93.4959 65.6572 93.458 65.46 93.46C65.2627 93.458 65.0671 93.4959 64.8849 93.5715C64.7028 93.6471 64.5378 93.7589 64.4 93.9C64.1186 94.1811 63.9603 94.5624 63.96 94.96V104.47C63.9831 104.847 64.1431 105.203 64.41 105.47C64.6839 105.761 65.0607 105.933 65.46 105.95V105.95Z" fill="white"/>
<path d="M72.8199 103.07C73.2176 103.07 73.5988 102.911 73.8799 102.63C74.16 102.344 74.3179 101.96 74.3199 101.56V97.7601C74.3195 97.3624 74.1613 96.9811 73.8799 96.7001C73.7421 96.5589 73.5771 96.4472 73.395 96.3716C73.2128 96.2959 73.0171 96.258 72.8199 96.2601C72.6226 96.258 72.4271 96.2959 72.2449 96.3716C72.0627 96.4472 71.8977 96.5589 71.7599 96.7001C71.4785 96.9811 71.3202 97.3624 71.3199 97.7601V101.54C71.3158 101.739 71.3533 101.937 71.4299 102.12C71.5015 102.307 71.6103 102.477 71.7499 102.62C71.8917 102.759 72.0579 102.871 72.2399 102.95C72.4231 103.029 72.6204 103.07 72.8199 103.07V103.07Z" fill="white"/>
<path d="M80.1899 107.37C80.3855 107.373 80.5796 107.336 80.7599 107.26C80.9435 107.188 81.1104 107.079 81.2499 106.94C81.3888 106.798 81.5007 106.632 81.5799 106.45C81.6509 106.265 81.6882 106.068 81.6899 105.87V93.51C81.6895 93.1123 81.5313 92.731 81.2499 92.45C80.9689 92.1686 80.5876 92.0104 80.1899 92.01C79.7922 92.0104 79.4109 92.1686 79.1299 92.45C78.9887 92.5878 78.877 92.7528 78.8014 92.935C78.7258 93.1171 78.6878 93.3128 78.6899 93.51V105.87C78.6867 106.069 78.7242 106.266 78.7999 106.45C78.8717 106.634 78.9806 106.8 79.1199 106.94C79.2595 107.079 79.4263 107.188 79.6099 107.26C79.7935 107.337 79.991 107.374 80.1899 107.37V107.37Z" fill="white"/>
<path d="M87.5501 104.07C87.9474 104.067 88.3279 103.909 88.6101 103.63C88.8915 103.349 89.0498 102.968 89.0501 102.57V96.8599C89.0498 96.4623 88.8915 96.081 88.6101 95.7999C88.472 95.6593 88.3069 95.5478 88.1248 95.4722C87.9427 95.3966 87.7473 95.3584 87.5501 95.3599C87.3529 95.3579 87.1572 95.3958 86.9751 95.4714C86.7929 95.547 86.6279 95.6588 86.4901 95.7999C86.349 95.9377 86.2372 96.1027 86.1616 96.2849C86.086 96.4671 86.0481 96.6627 86.0501 96.8599V102.57C86.0481 102.767 86.086 102.963 86.1616 103.145C86.2372 103.327 86.349 103.492 86.4901 103.63C86.7712 103.911 87.1524 104.07 87.5501 104.07V104.07Z" fill="white"/>
<path d="M94.91 103.07C95.1062 103.07 95.3003 103.029 95.48 102.95C95.6636 102.878 95.8304 102.769 95.97 102.63C96.1093 102.491 96.2182 102.324 96.29 102.14C96.37 101.957 96.4109 101.76 96.41 101.56V97.7601C96.4096 97.3624 96.2513 96.9811 95.97 96.7C95.8318 96.5594 95.6668 96.4479 95.4847 96.3723C95.3026 96.2967 95.1071 96.2586 94.91 96.2601C94.7114 96.2589 94.5145 96.2972 94.3308 96.3727C94.1471 96.4483 93.9803 96.5595 93.84 96.7C93.702 96.8397 93.5929 97.0052 93.5192 97.1871C93.4454 97.369 93.4083 97.5638 93.41 97.7601V101.54C93.4024 101.738 93.4365 101.936 93.5099 102.12C93.5889 102.305 93.7007 102.475 93.84 102.62C93.98 102.761 94.1465 102.873 94.3299 102.95C94.5128 103.03 94.7104 103.071 94.91 103.07V103.07Z" fill="white"/>
<path d="M102.28 102.17C102.678 102.17 103.059 102.011 103.34 101.73C103.621 101.449 103.78 101.068 103.78 100.67V98.74C103.777 98.3427 103.62 97.9623 103.34 97.68C103.059 97.3986 102.678 97.2403 102.28 97.24C101.882 97.2403 101.501 97.3986 101.22 97.68C100.94 97.9623 100.782 98.3427 100.78 98.74V100.64C100.777 100.842 100.814 101.043 100.89 101.23C100.962 101.414 101.071 101.58 101.21 101.72C101.349 101.862 101.516 101.975 101.7 102.05C101.883 102.129 102.08 102.17 102.28 102.17V102.17Z" fill="white"/>
<path d="M109.63 102.17C110.028 102.17 110.409 102.011 110.69 101.73C110.971 101.449 111.13 101.068 111.13 100.67V98.74C111.128 98.3427 110.97 97.9623 110.69 97.68C110.409 97.3986 110.028 97.2403 109.63 97.24C109.232 97.2403 108.851 97.3986 108.57 97.68C108.291 97.9623 108.133 98.3427 108.13 98.74V100.64C108.127 100.842 108.164 101.043 108.24 101.23C108.312 101.414 108.421 101.58 108.56 101.72C108.699 101.862 108.866 101.975 109.05 102.05C109.233 102.13 109.43 102.171 109.63 102.17V102.17Z" fill="white"/>
<path d="M117.15 105.95C117.548 105.95 117.929 105.791 118.21 105.51C118.491 105.229 118.65 104.848 118.65 104.45V94.96C118.65 94.5624 118.491 94.1811 118.21 93.9C118.072 93.7589 117.907 93.6471 117.725 93.5715C117.543 93.4959 117.347 93.458 117.15 93.46C116.953 93.458 116.757 93.4959 116.575 93.5715C116.393 93.6471 116.228 93.7589 116.09 93.9C115.809 94.1811 115.65 94.5624 115.65 94.96V104.47C115.673 104.847 115.833 105.203 116.1 105.47C116.374 105.761 116.751 105.933 117.15 105.95Z" fill="white"/>
<path d="M124.51 115.3C124.908 115.3 125.289 115.141 125.57 114.86C125.851 114.579 126.01 114.198 126.01 113.8V85.5899C126.01 85.1922 125.851 84.811 125.57 84.5299C125.432 84.3888 125.267 84.277 125.085 84.2014C124.903 84.1258 124.707 84.0879 124.51 84.0899C124.313 84.0879 124.117 84.1258 123.935 84.2014C123.753 84.277 123.588 84.3888 123.45 84.5299C123.169 84.811 123.01 85.1922 123.01 85.5899V113.8C123.01 114.198 123.169 114.579 123.45 114.86C123.731 115.141 124.112 115.3 124.51 115.3Z" fill="white"/>
<path d="M131.88 112.61C132.278 112.61 132.659 112.451 132.94 112.17C133.083 112.026 133.196 111.854 133.272 111.665C133.347 111.476 133.384 111.274 133.38 111.07V88.2701C133.38 87.8724 133.221 87.4911 132.94 87.2101C132.802 87.069 132.637 86.9572 132.455 86.8816C132.273 86.806 132.077 86.768 131.88 86.7701C131.683 86.768 131.487 86.806 131.305 86.8816C131.123 86.9572 130.958 87.069 130.82 87.2101C130.679 87.3479 130.567 87.5129 130.491 87.6951C130.416 87.8772 130.378 88.0729 130.38 88.2701V111.07C130.378 111.267 130.417 111.463 130.492 111.645C130.568 111.827 130.679 111.992 130.82 112.13C130.956 112.277 131.12 112.395 131.302 112.477C131.484 112.56 131.68 112.605 131.88 112.61V112.61Z" fill="white"/>
<path d="M139.28 104.07C139.677 104.067 140.058 103.909 140.34 103.63C140.621 103.349 140.78 102.968 140.78 102.57V96.8599C140.78 96.4623 140.621 96.081 140.34 95.7999C140.202 95.6593 140.037 95.5478 139.855 95.4722C139.673 95.3966 139.477 95.3584 139.28 95.3599C139.083 95.3579 138.887 95.3958 138.705 95.4714C138.523 95.547 138.358 95.6588 138.22 95.7999C138.079 95.9377 137.967 96.1027 137.892 96.2849C137.816 96.4671 137.778 96.6627 137.78 96.8599V102.57C137.778 102.767 137.816 102.963 137.892 103.145C137.967 103.327 138.079 103.492 138.22 103.63C138.501 103.911 138.882 104.07 139.28 104.07V104.07Z" fill="white"/>
<path d="M146.6 120.85C146.997 120.848 147.378 120.69 147.66 120.41C147.939 120.128 148.097 119.747 148.1 119.35V80.0701C148.1 79.6724 147.941 79.2911 147.66 79.0101C147.378 78.7305 146.997 78.5726 146.6 78.5701C146.2 78.5721 145.816 78.7299 145.53 79.0101C145.392 79.1497 145.283 79.3153 145.209 79.4972C145.135 79.6791 145.098 79.8738 145.1 80.0701V119.38C145.099 119.776 145.253 120.157 145.53 120.44C145.821 120.709 146.204 120.856 146.6 120.85Z" fill="white"/>
<path d="M153.96 114.67C154.358 114.67 154.739 114.511 155.02 114.23C155.301 113.949 155.46 113.568 155.46 113.17V86.22C155.46 85.8223 155.301 85.441 155.02 85.16C154.739 84.8786 154.358 84.7203 153.96 84.72C153.562 84.7203 153.181 84.8786 152.9 85.16C152.619 85.441 152.46 85.8223 152.46 86.22V113.17C152.46 113.568 152.619 113.949 152.9 114.23C153.181 114.511 153.562 114.67 153.96 114.67V114.67Z" fill="white"/>
<path d="M161.28 110.23C161.678 110.23 162.059 110.071 162.34 109.79C162.62 109.508 162.778 109.127 162.78 108.73V90.6599C162.78 90.2622 162.621 89.8809 162.34 89.5999C162.059 89.3185 161.678 89.1603 161.28 89.1599C160.882 89.1603 160.501 89.3185 160.22 89.5999C159.939 89.8809 159.78 90.2622 159.78 90.6599V108.73C159.783 109.127 159.94 109.508 160.22 109.79C160.501 110.071 160.882 110.23 161.28 110.23Z" fill="white"/>
<path d="M168.61 104.07C168.805 104.069 168.999 104.032 169.18 103.96C169.364 103.883 169.53 103.771 169.67 103.63C169.811 103.49 169.923 103.323 170 103.14C170.072 102.958 170.109 102.765 170.11 102.57V96.8599C170.11 96.4623 169.951 96.081 169.67 95.7999C169.532 95.6588 169.367 95.547 169.185 95.4714C169.003 95.3958 168.807 95.3579 168.61 95.3599C168.413 95.3579 168.217 95.3958 168.035 95.4714C167.853 95.547 167.688 95.6588 167.55 95.7999C167.269 96.081 167.11 96.4623 167.11 96.8599V102.57C167.11 102.968 167.269 103.349 167.55 103.63C167.831 103.911 168.212 104.07 168.61 104.07V104.07Z" fill="white"/>
<path d="M175.97 105.95C176.368 105.95 176.749 105.791 177.03 105.51C177.171 105.372 177.283 105.207 177.359 105.025C177.434 104.843 177.472 104.647 177.47 104.45V94.96C177.472 94.7628 177.434 94.5672 177.359 94.385C177.283 94.2028 177.171 94.0378 177.03 93.9C176.892 93.7589 176.727 93.6471 176.545 93.5715C176.363 93.4959 176.167 93.458 175.97 93.46C175.773 93.4585 175.577 93.4967 175.395 93.5723C175.213 93.6479 175.048 93.7594 174.91 93.9C174.629 94.1811 174.47 94.5624 174.47 94.96V104.47C174.493 104.847 174.653 105.203 174.92 105.47C175.194 105.761 175.571 105.933 175.97 105.95V105.95Z" fill="white"/>
<path d="M183.33 111.66C183.728 111.66 184.109 111.501 184.39 111.22C184.531 111.082 184.643 110.917 184.719 110.735C184.794 110.553 184.832 110.357 184.83 110.16V89.23C184.832 89.0327 184.794 88.8371 184.719 88.6549C184.643 88.4727 184.531 88.3078 184.39 88.17C184.109 87.8886 183.728 87.7303 183.33 87.73C182.933 87.7325 182.552 87.8904 182.27 88.17C181.989 88.451 181.83 88.8323 181.83 89.23V110.16C181.83 110.558 181.989 110.939 182.27 111.22C182.552 111.5 182.933 111.657 183.33 111.66Z" fill="white"/>
<path d="M190.7 107.37C190.896 107.374 191.09 107.337 191.27 107.26C191.455 107.191 191.622 107.081 191.76 106.94C191.899 106.798 192.011 106.632 192.09 106.45C192.161 106.265 192.198 106.068 192.2 105.87V93.51C192.2 93.1123 192.041 92.731 191.76 92.45C191.479 92.1686 191.098 92.0104 190.7 92.01C190.302 92.0104 189.921 92.1686 189.64 92.45C189.359 92.731 189.2 93.1123 189.2 93.51V105.87C189.202 106.068 189.239 106.265 189.31 106.45C189.389 106.632 189.501 106.798 189.64 106.94C189.776 107.079 189.939 107.188 190.12 107.26C190.304 107.336 190.501 107.373 190.7 107.37V107.37Z" fill="white"/>
<path d="M198.06 104.07C198.458 104.07 198.839 103.911 199.12 103.63C199.401 103.349 199.56 102.968 199.56 102.57V96.8599C199.56 96.4623 199.401 96.081 199.12 95.7999C198.982 95.6588 198.817 95.547 198.635 95.4714C198.453 95.3958 198.257 95.3579 198.06 95.3599C197.863 95.3579 197.667 95.3958 197.485 95.4714C197.303 95.547 197.138 95.6588 197 95.7999C196.719 96.081 196.56 96.4623 196.56 96.8599V102.57C196.56 102.968 196.719 103.349 197 103.63C197.281 103.911 197.662 104.07 198.06 104.07V104.07Z" fill="white"/>
<path d="M205.42 104.07C205.818 104.07 206.199 103.911 206.48 103.63C206.761 103.349 206.92 102.968 206.92 102.57V96.8599C206.92 96.4623 206.761 96.081 206.48 95.7999C206.342 95.6588 206.177 95.547 205.995 95.4714C205.813 95.3958 205.617 95.3579 205.42 95.3599C205.223 95.3579 205.027 95.3958 204.845 95.4714C204.663 95.547 204.498 95.6588 204.36 95.7999C204.219 95.9377 204.107 96.1027 204.031 96.2849C203.956 96.4671 203.918 96.6627 203.92 96.8599V102.57C203.918 102.767 203.956 102.963 204.031 103.145C204.107 103.327 204.219 103.492 204.36 103.63C204.641 103.911 205.022 104.07 205.42 104.07V104.07Z" fill="white"/>
<path d="M212.78 111.66C213.178 111.66 213.559 111.501 213.84 111.22C213.981 111.082 214.093 110.917 214.169 110.735C214.244 110.553 214.282 110.357 214.28 110.16V89.23C214.282 89.0327 214.244 88.8371 214.169 88.6549C214.093 88.4727 213.981 88.3078 213.84 88.17C213.559 87.8886 213.178 87.7303 212.78 87.73C212.382 87.7303 212.001 87.8886 211.72 88.17C211.439 88.451 211.28 88.8323 211.28 89.23V110.16C211.28 110.558 211.439 110.939 211.72 111.22C212.001 111.501 212.382 111.66 212.78 111.66V111.66Z" fill="white"/>
<path d="M220.21 107.37C220.409 107.374 220.606 107.337 220.79 107.26C220.974 107.188 221.14 107.079 221.28 106.94C221.419 106.8 221.528 106.634 221.6 106.45C221.679 106.267 221.72 106.069 221.72 105.87V93.51C221.719 93.1123 221.561 92.731 221.28 92.45C220.994 92.1698 220.61 92.012 220.21 92.01C219.813 92.0125 219.432 92.1705 219.15 92.45C218.869 92.731 218.71 93.1123 218.71 93.51V105.87C218.71 106.069 218.751 106.267 218.83 106.45C218.902 106.634 219.011 106.8 219.15 106.94C219.289 107.079 219.456 107.188 219.64 107.26C219.82 107.336 220.014 107.373 220.21 107.37V107.37Z" fill="white"/>
<path d="M227.58 110.23C227.978 110.23 228.359 110.071 228.64 109.79C228.92 109.508 229.078 109.127 229.08 108.73V90.6599C229.08 90.2622 228.921 89.8809 228.64 89.5999C228.359 89.3185 227.978 89.1603 227.58 89.1599C227.182 89.1603 226.801 89.3185 226.52 89.5999C226.239 89.8809 226.08 90.2622 226.08 90.6599V108.73C226.082 108.925 226.119 109.118 226.19 109.3C226.267 109.483 226.379 109.65 226.52 109.79C226.658 109.929 226.821 110.041 227 110.12C227.185 110.191 227.382 110.228 227.58 110.23V110.23Z" fill="white"/>
<path d="M234.94 106.59C235.338 106.59 235.719 106.431 236 106.15C236.28 105.864 236.438 105.48 236.44 105.08V94.3C236.44 93.9024 236.281 93.5211 236 93.24C235.719 92.9587 235.338 92.8004 234.94 92.8C234.542 92.8004 234.161 92.9587 233.88 93.24C233.598 93.5211 233.44 93.9024 233.44 94.3V105.07C233.442 105.47 233.6 105.854 233.88 106.14C234.018 106.281 234.183 106.394 234.365 106.471C234.547 106.548 234.742 106.589 234.94 106.59Z" fill="white"/>
<path d="M242.46 103.07C242.858 103.07 243.239 102.911 243.52 102.63C243.8 102.344 243.958 101.96 243.96 101.56V97.7601C243.96 97.3624 243.801 96.9811 243.52 96.7001C243.382 96.5589 243.217 96.4472 243.035 96.3716C242.853 96.2959 242.657 96.258 242.46 96.2601C242.263 96.258 242.067 96.2959 241.885 96.3716C241.703 96.4472 241.538 96.5589 241.4 96.7001C241.119 96.9811 240.96 97.3624 240.96 97.7601V101.54C240.956 101.739 240.993 101.937 241.07 102.12C241.142 102.307 241.25 102.477 241.39 102.62C241.532 102.759 241.698 102.871 241.88 102.95C242.063 103.03 242.26 103.071 242.46 103.07V103.07Z" fill="white"/>
<path d="M249.82 106.59C250.218 106.59 250.599 106.431 250.88 106.15C251.148 105.855 251.291 105.468 251.28 105.07V94.3C251.28 93.9024 251.121 93.5211 250.84 93.24C250.559 92.9587 250.178 92.8004 249.78 92.8C249.382 92.8004 249.001 92.9587 248.72 93.24C248.439 93.5211 248.28 93.9024 248.28 94.3V105.07C248.282 105.47 248.44 105.854 248.72 106.14C248.863 106.286 249.034 106.401 249.224 106.479C249.413 106.556 249.616 106.594 249.82 106.59Z" fill="white"/>
<path d="M257.18 113.59C257.578 113.59 257.959 113.431 258.24 113.15C258.519 112.868 258.677 112.487 258.68 112.09V87.3301C258.68 86.9324 258.521 86.5511 258.24 86.2701C257.959 85.9887 257.578 85.8304 257.18 85.8301C256.782 85.8304 256.401 85.9887 256.12 86.2701C255.839 86.5511 255.68 86.9324 255.68 87.3301V112.07C255.678 112.268 255.712 112.464 255.78 112.65C255.857 112.836 255.969 113.006 256.11 113.15C256.25 113.291 256.416 113.403 256.6 113.48C256.783 113.557 256.981 113.594 257.18 113.59Z" fill="white"/>
<path d="M264.55 116.59C264.947 116.586 265.327 116.429 265.61 116.15C265.891 115.869 266.05 115.488 266.05 115.09V84.3201C266.05 83.9224 265.891 83.5411 265.61 83.2601C265.327 82.9814 264.947 82.8236 264.55 82.8201C264.15 82.8221 263.766 82.9799 263.48 83.2601C263.199 83.5411 263.04 83.9224 263.04 84.3201V115.07C263.042 115.268 263.079 115.465 263.15 115.65C263.229 115.832 263.341 115.998 263.48 116.14C263.617 116.288 263.784 116.404 263.97 116.48C264.155 116.552 264.352 116.589 264.55 116.59V116.59Z" fill="white"/>
<path d="M271.93 112.61C272.328 112.61 272.709 112.451 272.99 112.17C273.269 111.888 273.427 111.507 273.43 111.11V88.2701C273.43 87.8724 273.271 87.4911 272.99 87.2101C272.852 87.069 272.687 86.9572 272.505 86.8816C272.323 86.806 272.127 86.768 271.93 86.7701C271.733 86.768 271.537 86.806 271.355 86.8816C271.173 86.9572 271.008 87.069 270.87 87.2101C270.588 87.4911 270.43 87.8724 270.43 88.2701V111.07C270.432 111.467 270.59 111.848 270.87 112.13C271.006 112.277 271.169 112.395 271.351 112.477C271.533 112.56 271.73 112.605 271.93 112.61Z" fill="white"/>
<path d="M279.28 107.37C279.479 107.374 279.676 107.337 279.86 107.26C280.044 107.188 280.21 107.079 280.35 106.94C280.489 106.8 280.598 106.634 280.67 106.45C280.751 106.268 280.788 106.069 280.78 105.87V93.51C280.782 93.3137 280.745 93.119 280.671 92.9371C280.597 92.7552 280.488 92.5897 280.35 92.45C280.064 92.1698 279.68 92.012 279.28 92.01C278.883 92.0125 278.502 92.1705 278.22 92.45C277.939 92.731 277.78 93.1123 277.78 93.51V105.87C277.78 106.069 277.821 106.267 277.9 106.45C277.972 106.634 278.081 106.8 278.22 106.94C278.359 107.079 278.526 107.188 278.71 107.26C278.89 107.336 279.084 107.373 279.28 107.37V107.37Z" fill="white"/>
<path d="M286.63 104.07C287.028 104.07 287.409 103.911 287.69 103.63C287.971 103.349 288.13 102.968 288.13 102.57V96.8599C288.13 96.4623 287.971 96.081 287.69 95.7999C287.552 95.6588 287.387 95.547 287.205 95.4714C287.023 95.3958 286.827 95.3579 286.63 95.3599C286.433 95.3579 286.237 95.3958 286.055 95.4714C285.873 95.547 285.708 95.6588 285.57 95.7999C285.289 96.081 285.13 96.4623 285.13 96.8599V102.57C285.13 102.968 285.289 103.349 285.57 103.63C285.851 103.911 286.232 104.07 286.63 104.07V104.07Z" fill="white"/>
<path d="M293.92 102.46C294.117 102.461 294.313 102.423 294.495 102.348C294.677 102.272 294.842 102.161 294.98 102.02C295.261 101.739 295.42 101.358 295.42 100.96V98.4299C295.42 98.0292 295.262 97.6446 294.98 97.3599C294.698 97.0804 294.317 96.9224 293.92 96.9199C293.522 96.9203 293.141 97.0785 292.86 97.3599C292.719 97.4996 292.607 97.6663 292.531 97.8502C292.456 98.034 292.418 98.2312 292.42 98.4299V100.97C292.42 101.368 292.579 101.749 292.86 102.03C293 102.168 293.165 102.277 293.347 102.351C293.529 102.424 293.724 102.462 293.92 102.46V102.46Z" fill="white"/>
<path d="M302.78 100.32V99.0701C302.778 98.6698 302.62 98.286 302.34 98.0001C302.059 97.7187 301.678 97.5604 301.28 97.5601C300.882 97.5604 300.501 97.7187 300.22 98.0001C299.94 98.286 299.782 98.6698 299.78 99.0701V100.33C299.78 100.731 299.938 101.115 300.22 101.4C300.501 101.681 300.882 101.84 301.28 101.84C301.678 101.84 302.059 101.681 302.34 101.4C302.481 101.258 302.592 101.089 302.668 100.904C302.743 100.719 302.781 100.52 302.78 100.32Z" fill="white"/>
<path d="M310.14 102.55V96.8399C310.14 96.4422 309.981 96.061 309.7 95.7799C309.562 95.6388 309.397 95.527 309.215 95.4514C309.033 95.3758 308.837 95.3379 308.64 95.3399C308.443 95.3379 308.247 95.3758 308.065 95.4514C307.883 95.527 307.718 95.6388 307.58 95.7799C307.299 96.061 307.14 96.4422 307.14 96.8399V102.55C307.14 102.948 307.299 103.329 307.58 103.61C307.861 103.891 308.242 104.05 308.64 104.05C309.038 104.05 309.419 103.891 309.7 103.61C309.981 103.329 310.14 102.948 310.14 102.55V102.55Z" fill="white"/>
<path d="M317.5 101.57V97.76C317.497 97.3628 317.34 96.9823 317.06 96.7C316.779 96.4186 316.398 96.2604 316 96.26C315.602 96.2604 315.221 96.4186 314.94 96.7C314.661 96.9823 314.503 97.3628 314.5 97.76V101.57C314.5 101.968 314.659 102.349 314.94 102.63C315.221 102.911 315.602 103.07 316 103.07C316.398 103.07 316.779 102.911 317.06 102.63C317.341 102.349 317.5 101.968 317.5 101.57Z" fill="white"/>
<path d="M324.87 100.97V98.4299C324.87 98.0322 324.711 97.651 324.43 97.3699C324.148 97.0904 323.767 96.9324 323.37 96.9299C322.972 96.9303 322.591 97.0885 322.31 97.3699C322.169 97.5077 322.057 97.6727 321.981 97.8549C321.906 98.0371 321.868 98.2327 321.87 98.4299V100.97C321.859 101.172 321.889 101.374 321.96 101.563C322.03 101.752 322.139 101.925 322.28 102.07C322.561 102.351 322.942 102.51 323.34 102.51C323.737 102.507 324.118 102.349 324.4 102.07C324.55 101.929 324.669 101.758 324.749 101.569C324.83 101.38 324.871 101.176 324.87 100.97V100.97Z" fill="white"/>
<path d="M325.69 64.39H297.9C297.703 64.3879 297.507 64.4258 297.325 64.5014C297.143 64.5771 296.978 64.6888 296.84 64.83C296.559 65.111 296.4 65.4923 296.4 65.89C296.4 66.2877 296.559 66.6689 296.84 66.95C297.121 67.2314 297.502 67.3896 297.9 67.39H325.69C328.158 67.3949 330.523 68.3764 332.27 70.12C334.014 71.8702 334.995 74.2391 335 76.71V122.71C334.997 125.178 334.015 127.545 332.27 129.29C330.524 131.036 328.159 132.021 325.69 132.03H12.34C11.115 132.029 9.90203 131.788 8.76996 131.32C7.64783 130.858 6.62826 130.178 5.76996 129.32C4.91537 128.459 4.23613 127.44 3.76996 126.32C3.29778 125.189 3.05315 123.976 3.04999 122.75V76.75C3.05881 74.2799 4.03948 71.9126 5.77997 70.16C7.5265 68.4164 9.89212 67.4349 12.36 67.43H35.98C36.3803 67.4279 36.7641 67.2701 37.05 66.99C37.3314 66.7089 37.4896 66.3277 37.49 65.93C37.4896 65.5323 37.3314 65.151 37.05 64.87C36.9096 64.7295 36.7428 64.6182 36.5591 64.5427C36.3754 64.4671 36.1786 64.4288 35.98 64.43H12.28C9.01606 64.4324 5.8867 65.7309 3.57996 68.04C2.4354 69.1834 1.52745 70.5411 0.90802 72.0357C0.288588 73.5302 -0.0301651 75.1322 -0.0300293 76.75V122.75C-0.0281069 126.017 1.27025 129.15 3.57996 131.46C5.8867 133.769 9.01606 135.068 12.28 135.07H325.66C328.924 135.068 332.053 133.769 334.36 131.46C336.67 129.15 337.968 126.017 337.97 122.75V76.75C337.97 75.1322 337.651 73.5302 337.032 72.0357C336.412 70.5411 335.504 69.1834 334.36 68.04C332.067 65.7235 328.949 64.4109 325.69 64.39V64.39Z" fill="white"/>
<path d="M63.9401 32.5899H67.0301C67.3084 32.5626 67.5658 32.4302 67.7501 32.2199C67.8459 32.1209 67.9203 32.0032 67.9685 31.8741C68.0167 31.7451 68.0376 31.6074 68.0301 31.4699C68.0262 31.1895 67.9153 30.9212 67.7201 30.7199C67.5232 30.5274 67.2647 30.4106 66.9901 30.3899H63.8301C63.5506 30.4208 63.2933 30.5566 63.1101 30.7699C62.9274 30.9834 62.8343 31.2593 62.8501 31.5399C62.8517 31.6802 62.8828 31.8186 62.9414 31.9461C62.9999 32.0736 63.0847 32.1873 63.1901 32.2799C63.2886 32.3783 63.4056 32.4563 63.5343 32.5095C63.663 32.5627 63.8008 32.59 63.9401 32.5899V32.5899Z" fill="white"/>
<path d="M63.94 28.4H67.03C67.3211 28.3911 67.5974 28.2691 67.8 28.06C67.8994 27.9564 67.977 27.8341 68.0285 27.7002C68.08 27.5662 68.1044 27.4234 68.1 27.28C68.0997 27.136 68.0702 26.9936 68.0135 26.8613C67.9568 26.729 67.874 26.6095 67.77 26.51C67.6665 26.4107 67.5441 26.333 67.4102 26.2815C67.2763 26.23 67.1335 26.2056 66.9901 26.21H63.83C63.5406 26.2307 63.2694 26.3591 63.07 26.57C62.8797 26.7882 62.7797 27.0706 62.79 27.36C62.8108 27.6494 62.9392 27.9206 63.15 28.12C63.3682 28.3102 63.6507 28.4103 63.94 28.4V28.4Z" fill="white"/>
<path d="M63.94 24.2099H67.03C67.1744 24.2061 67.3168 24.1756 67.45 24.1199C67.5824 24.0611 67.7015 23.9761 67.8 23.8699C67.9018 23.7679 67.9802 23.6451 68.03 23.5099C68.0832 23.3766 68.1071 23.2333 68.1 23.0899C68.099 22.9452 68.0684 22.8023 68.01 22.6699C67.9547 22.541 67.873 22.4251 67.77 22.3299C67.6653 22.2316 67.5432 22.1536 67.41 22.0999C67.2774 22.0433 67.1342 22.016 66.9901 22.0199H63.83C63.5406 22.0406 63.2694 22.1691 63.07 22.3799C62.8797 22.5981 62.7797 22.8806 62.79 23.1699C62.8088 23.4599 62.9376 23.7317 63.15 23.9299C63.3682 24.1202 63.6507 24.2203 63.94 24.2099Z" fill="white"/>
<path d="M135.67 27.38C135.178 26.861 134.595 26.4373 133.95 26.13C133.256 25.816 132.501 25.659 131.74 25.67C130.989 25.6593 130.245 25.8128 129.56 26.12C128.92 26.4084 128.345 26.8234 127.87 27.34C127.389 27.8563 127.018 28.4654 126.78 29.13C126.526 29.8217 126.397 30.5531 126.4 31.29V31.35C126.393 32.0922 126.529 32.8288 126.8 33.52C127.05 34.187 127.423 34.8011 127.9 35.33C128.378 35.853 128.956 36.2746 129.6 36.57C130.288 36.8917 131.04 37.0525 131.8 37.04C132.56 37.0496 133.314 36.8962 134.01 36.59C134.65 36.3015 135.225 35.8865 135.7 35.37C136.168 34.8454 136.534 34.2384 136.78 33.58C137.042 32.8901 137.174 32.1578 137.17 31.42V31.35C137.174 30.6121 137.042 29.8799 136.78 29.19C136.527 28.5224 136.15 27.9085 135.67 27.38V27.38Z" fill="white"/>
<path d="M292.9 8.16C292.238 6.55616 291.266 5.09844 290.04 3.87001C288.81 2.64358 287.353 1.66871 285.75 1C284.144 0.34091 282.426 0.00123835 280.69 0H53.7801C50.2768 0.000467074 46.9171 1.39255 44.4401 3.87001C41.9657 6.35317 40.5745 9.71451 40.5701 13.22V54.28C40.5745 57.7855 41.9657 61.1468 44.4401 63.63C46.9171 66.1075 50.2768 67.4995 53.7801 67.5H56.0001L64.4101 77.21L72.5901 67.5H280.7C282.435 67.502 284.153 67.1611 285.756 66.4969C287.359 65.8328 288.815 64.8585 290.04 63.63C292.518 61.1493 293.91 57.7864 293.91 54.28V13.22C293.911 11.4831 293.568 9.76327 292.9 8.16V8.16ZM58.8301 22.32C58.8302 20.5615 59.5279 18.8748 60.7701 17.63C61.3846 17.0118 62.1154 16.5212 62.9203 16.1865C63.7252 15.8519 64.5884 15.6797 65.4601 15.68C66.3317 15.6803 67.1947 15.8527 67.9996 16.1873C68.8044 16.5219 69.5352 17.0122 70.1501 17.63C71.3923 18.8748 72.09 20.5615 72.0901 22.32V32.27C72.0904 34.0316 71.3929 35.7216 70.1501 36.97C68.9041 38.2104 67.2182 38.9077 65.4601 38.91C63.7015 38.9099 62.0148 38.2122 60.7701 36.97C59.5273 35.7216 58.8297 34.0316 58.8301 32.27V22.32ZM75.8801 33.07C75.6817 35.5057 74.6423 37.7966 72.9401 39.55C71.2413 41.3096 68.981 42.4203 66.5501 42.69V48.53H70.3801C70.5244 48.5338 70.6669 48.5643 70.8001 48.62C70.9325 48.6788 71.0515 48.7638 71.1501 48.87C71.2518 48.972 71.3302 49.0948 71.3801 49.23C71.4333 49.3634 71.4572 49.5066 71.4501 49.65C71.4491 49.7947 71.4185 49.9376 71.3601 50.07C71.3014 50.1999 71.2201 50.3184 71.1201 50.42C71.0125 50.5119 70.8909 50.5862 70.7601 50.64C70.6275 50.6966 70.4842 50.7239 70.3401 50.72H60.5901C60.3006 50.7314 60.0178 50.6312 59.8001 50.44C59.6923 50.3438 59.6049 50.227 59.5431 50.0965C59.4813 49.9659 59.4462 49.8243 59.4401 49.68C59.4306 49.5362 59.4506 49.392 59.4987 49.2562C59.5469 49.1203 59.6222 48.9957 59.7201 48.89C59.9146 48.6782 60.1831 48.5493 60.4701 48.53H64.3701V42.64C61.9422 42.3673 59.6839 41.2611 57.9801 39.51C56.2813 37.7542 55.2425 35.4647 55.0401 33.03C55.0151 32.8878 55.0151 32.7422 55.0401 32.6C55.0814 32.4595 55.1531 32.3298 55.2501 32.22C55.3394 32.1073 55.4519 32.0152 55.5801 31.95C55.708 31.8829 55.8469 31.8389 55.9901 31.82C56.2784 31.8048 56.5614 31.9016 56.7801 32.09C57 32.2849 57.1361 32.5572 57.1601 32.85C57.3217 34.9209 58.2614 36.8537 59.7901 38.26C61.3184 39.6691 63.3213 40.451 65.4001 40.45C67.4754 40.4485 69.4743 39.6668 71.0001 38.26C72.5288 36.8537 73.4684 34.9209 73.6301 32.85C73.649 32.575 73.7661 32.3159 73.9601 32.12C74.1588 31.9283 74.4239 31.8208 74.7001 31.82H74.8401C74.9903 31.829 75.1369 31.8699 75.2701 31.94C75.404 32.0137 75.5228 32.1121 75.6201 32.23C75.714 32.3479 75.782 32.4842 75.8201 32.63C75.8553 32.7746 75.8553 32.9255 75.8201 33.07H75.8801ZM115.03 41.85H109.91L100.91 30.3V41.85H95.1601V20.79H100.62L109.28 31.96V20.82H115.02L115.03 41.85ZM143.13 31.32C143.143 32.7844 142.85 34.2353 142.27 35.58C141.716 36.8922 140.903 38.0792 139.88 39.07C138.839 40.0782 137.613 40.8761 136.27 41.42C134.838 42.001 133.305 42.2932 131.76 42.28C130.215 42.2943 128.682 42.002 127.25 41.42C125.916 40.8847 124.7 40.0931 123.67 39.09C122.664 38.1005 121.859 36.9255 121.3 35.63C120.729 34.2898 120.44 32.8467 120.45 31.39V31.32C120.434 29.8615 120.716 28.4151 121.28 27.07C121.837 25.7572 122.654 24.5702 123.68 23.58C124.718 22.5685 125.945 21.7701 127.29 21.23C128.722 20.648 130.255 20.3557 131.8 20.37C133.345 20.3568 134.878 20.6491 136.31 21.23C137.644 21.7653 138.86 22.5569 139.89 23.56C140.912 24.5593 141.725 25.7526 142.28 27.07C142.859 28.4081 143.152 29.8522 143.14 31.31L143.13 31.32ZM165.88 25.91H159.56V41.85H153.72V25.91H147.4V20.79H165.88V25.91ZM176.83 41.85H170.96V20.79H176.83V41.85ZM175.62 19.38H171.62L174.75 13.81L180.08 15.53L175.62 19.38ZM200.91 39.38C200.313 39.9668 199.641 40.4713 198.91 40.88C198.11 41.3147 197.261 41.6505 196.38 41.88C195.349 42.1318 194.291 42.2528 193.23 42.24C191.776 42.2495 190.335 41.9708 188.99 41.42C187.701 40.9051 186.531 40.1327 185.55 39.15C184.557 38.1601 183.769 36.9844 183.23 35.69C182.65 34.3172 182.358 32.8402 182.37 31.35V31.28C182.36 29.8114 182.645 28.3557 183.21 27C183.753 25.6987 184.54 24.5139 185.53 23.51C186.528 22.5011 187.723 21.7081 189.04 21.18C190.444 20.6013 191.951 20.3122 193.47 20.33C194.479 20.3171 195.486 20.4245 196.47 20.65C197.312 20.8434 198.126 21.146 198.89 21.55C199.614 21.9285 200.287 22.3991 200.89 22.95C201.479 23.4851 202.009 24.0819 202.47 24.73L198.08 28.13C197.529 27.4105 196.851 26.7972 196.08 26.32C195.286 25.8598 194.378 25.6312 193.46 25.66C192.769 25.6535 192.085 25.8039 191.46 26.1C190.86 26.3846 190.323 26.7857 189.88 27.28C189.442 27.8082 189.103 28.4112 188.88 29.06C188.622 29.7506 188.493 30.4828 188.5 31.22V31.28C188.492 32.0369 188.621 32.7889 188.88 33.5C189.099 34.1539 189.438 34.761 189.88 35.29C190.323 35.7843 190.86 36.1855 191.46 36.47C192.085 36.7661 192.769 36.9165 193.46 36.91C193.963 36.9155 194.463 36.855 194.95 36.73C195.387 36.6152 195.805 36.4366 196.19 36.2C196.566 35.9655 196.918 35.6941 197.24 35.39C197.592 35.0761 197.926 34.7422 198.24 34.39L202.63 37.52C202.111 38.2094 201.535 38.8549 200.91 39.45V39.38ZM213.44 41.81H207.57V20.75H213.44V41.81ZM235.31 41.81L233.78 38.05H225.66L224.15 41.81H218.02L227.02 20.6H232.65L241.65 41.81H235.31ZM262.81 35.33C262.83 36.3241 262.622 37.3095 262.2 38.21C261.789 39.0452 261.198 39.7793 260.47 40.36C259.67 40.975 258.761 41.4331 257.79 41.71C256.656 42.0342 255.48 42.1925 254.3 42.18C252.474 42.1872 250.659 41.8898 248.93 41.3C247.267 40.7331 245.736 39.835 244.43 38.66L247.68 34.77C249.591 36.3861 252.008 37.2813 254.51 37.3C255.129 37.3379 255.747 37.2102 256.3 36.93C256.492 36.8256 256.651 36.6706 256.76 36.4819C256.869 36.2932 256.925 36.078 256.92 35.86V35.8C256.924 35.5934 256.872 35.3896 256.77 35.21C256.626 35.0034 256.434 34.8351 256.21 34.72C255.867 34.5262 255.505 34.3687 255.13 34.25C254.67 34.1 254.13 33.95 253.37 33.79C252.24 33.53 251.2 33.24 250.24 32.93C249.349 32.6563 248.503 32.2519 247.73 31.73C247.031 31.2609 246.452 30.634 246.04 29.9C245.603 29.0617 245.39 28.1249 245.42 27.18V27.12C245.411 26.1903 245.602 25.2695 245.98 24.42C246.353 23.5943 246.91 22.8655 247.61 22.29C248.367 21.6604 249.24 21.1848 250.18 20.89C251.28 20.5431 252.427 20.3743 253.58 20.39C255.219 20.3646 256.85 20.6078 258.41 21.11C259.804 21.5698 261.103 22.2816 262.24 23.21L259.32 27.34C258.397 26.6867 257.387 26.165 256.32 25.79C255.379 25.454 254.389 25.2782 253.39 25.27C252.835 25.2297 252.282 25.3662 251.81 25.66C251.644 25.7682 251.509 25.9168 251.416 26.0917C251.323 26.2666 251.277 26.4621 251.28 26.66V26.72C251.277 26.9417 251.336 27.1599 251.45 27.35C251.595 27.5624 251.791 27.7345 252.02 27.85C252.375 28.035 252.747 28.1857 253.13 28.3C253.6 28.45 254.2 28.6 254.92 28.76C256.029 28.9959 257.121 29.3032 258.19 29.68C259.073 29.9826 259.908 30.4103 260.67 30.95C261.327 31.4247 261.861 32.0484 262.23 32.77C262.608 33.5623 262.793 34.4326 262.77 35.31L262.81 35.33Z" fill="white"/>
<path d="M227.37 33.6101H232.09L229.75 27.6201L227.37 33.6101Z" fill="white"/>
</g>
<defs>
<clipPath id="clip0_741:3662">
<rect width="338" height="135" fill="white"/>
</clipPath>
</defs>
</svg>
